<svg width="128" height="64" viewBox="0 0 128 64" fill="none" xmlns="http://www.w3.org/2000/svg">
<path d="M96 32C96 27.7977 95.1723 23.6366 93.5641 19.7542C91.956 15.8717 89.5989 12.3441 86.6274 9.37261C83.6559 6.40114 80.1283 4.04404 76.2459 2.43589C72.3634 0.827735 68.2023 3.03339e-05 64 3.05176e-05C59.7977 3.07013e-05 55.6365 0.827735 51.7541 2.43589C47.8717 4.04404 44.3441 6.40114 41.3726 9.37262C38.4011 12.3441 36.044 15.8717 34.4359 19.7542C32.8277 23.6366 32 27.7977 32 32L64 32H96Z" fill="#282828"/>
<path fill-rule="evenodd" clip-rule="evenodd" d="M0.03125 64H127.969C123.777 63.9959 119.627 63.1683 115.754 61.5642C111.872 59.956 108.344 57.5989 105.373 54.6274C102.401 51.656 100.044 48.1283 98.4359 44.2459C96.8277 40.3635 96 36.2023 96 32H32C32 36.2023 31.1723 40.3635 29.5641 44.2459C27.956 48.1283 25.5989 51.656 22.6274 54.6274C19.6559 57.5989 16.1283 59.956 12.2459 61.5642C8.37307 63.1683 4.22292 63.9959 0.03125 64Z" fill="#282828"/>
</svg>
